<?xml version="1.0" encoding="UTF-8" ?>
<svg width="1654" height="776" viewBox="0 0 1654 776" xmlns="http://www.w3.org/2000/svg">
	<style>
		.edge { stroke: black; fill: none; }
		.node { stroke: black; fill: white; }
		.arrow { stroke: none; fill: black; }
		.initial { fill: Lime !important; }
		.inactive { stroke-dasharray: 3.5; }
		.prob { stroke-width: 5px; }
		.label { text-anchor: middle; dominant-baseline: middle; font-family: sans-serif; font-size: 17px; }
	</style>

	<path class="edge" d="M1011.568848 276.577820 C1021.837036 302.570404, 1030.451416 329.163818, 1037.384766 356.371429" />
	<path class="arrow" d="M1040.613892 369.873840 L1041.885498 355.295074 L 1032.884033 357.447784 z" />
	<path class="edge" d="M1004.831299 268.468994 C982.698364 254.596313, 959.744324 242.256165, 935.956299 231.424576" />
	<path class="arrow" d="M924.384155 226.362869 L934.269104 235.281906 L 937.643494 227.567245 z" />
	<path class="edge" d="M1005.022888 274.680817 C982.218689 291.137177, 958.005737 308.002533, 932.367249 325.283203" />
	<path class="arrow" d="M921.634766 332.472839 L934.763794 328.860657 L 929.970703 321.705750 z" />
	<path class="edge" d="M1040.884644 381.167877 C1034.892822 412.378510, 1027.322876 443.886902, 1018.145752 475.695038" />
	<path class="arrow" d="M1014.159302 489.073395 L1022.605164 477.023834 L 1013.686340 474.366241 z" />
	<path class="edge" d="M1036.416992 373.857269 C1003.279053 364.038300, 969.288208 353.213562, 934.474670 341.398895" />
	<path class="arrow" d="M922.254333 337.210693 L933.078613 345.472290 L 935.870728 337.325500 z" />
	<path class="edge" d="M919.372498 229.511230 C918.377563 257.255646, 917.698303 286.458984, 917.339783 317.170166" />
	<path class="arrow" d="M917.216858 330.087677 L921.645569 317.211151 L 913.033997 317.129181 z" />
	<path class="edge" d="M914.699768 222.257721 C888.500671 211.590240, 861.562012 202.029022, 833.871948 193.560028" />
	<path class="arrow" d="M822.082581 190.066116 L832.707336 197.489792 L 835.036560 189.630264 z" />
	<path class="edge" d="M916.770630 340.831390 C914.508606 370.798645, 911.340454 400.438629, 907.251465 429.732056" />
	<path class="arrow" d="M905.342285 442.757111 L911.593140 430.368439 L 902.909790 429.095673 z" />
	<path class="edge" d="M912.243591 333.296021 C882.559509 320.269684, 853.221863 308.566956, 824.204407 298.167328" />
	<path class="arrow" d="M812.346375 294.011505 L822.819153 302.119995 L 825.589661 294.214661 z" />
	<path class="edge" d="M912.432617 338.022980 C877.834839 356.762573, 843.200623 376.698395, 808.505737 397.856964" />
	<path class="arrow" d="M797.542236 404.598969 L810.753052 401.511414 L 806.258423 394.202515 z" />
	<path class="edge" d="M1013.590210 500.347168 C1018.854858 528.486084, 1022.414063 556.159424, 1024.237671 583.344727" />
	<path class="arrow" d="M1024.974121 597.696594 L1029.021606 583.099243 L 1019.453796 583.590210 z" />
	<path class="edge" d="M1007.250854 492.152649 C979.673523 479.147888, 951.221497 466.773682, 921.893982 455.020905" />
	<path class="arrow" d="M909.647278 450.192230 L920.284424 459.103088 L 923.503540 450.938721 z" />
	<path class="edge" d="M1007.796448 498.049927 C985.089844 514.407593, 961.668762 529.863159, 937.541565 544.400208" />
	<path class="arrow" d="M925.899658 551.268738 L939.831055 548.280823 L 935.252075 540.519592 z" />
	<path class="edge" d="M816.883484 193.725922 C815.375061 219.659622, 812.958435 246.613297, 809.617065 274.616241" />
	<path class="arrow" d="M808.055542 287.084076 L813.772949 275.136749 L 805.461182 274.095734 z" />
	<path class="edge" d="M812.983765 185.656052 C791.720337 170.756729, 770.520142 157.512360, 749.361572 145.894440" />
	<path class="arrow" d="M738.516724 140.138702 L747.443054 149.509308 L 751.280090 142.279572 z" />
	<path class="edge" d="M812.544312 190.813644 C785.974365 203.518097, 760.435791 216.560226, 735.929138 229.945755" />
	<path class="arrow" d="M724.921753 236.046066 L737.962524 233.614838 L 733.895752 226.276672 z" />
	<path class="edge" d="M905.168396 453.628326 C908.393921 481.393677, 912.471069 508.635315, 917.412048 535.332520" />
	<path class="arrow" d="M919.981934 548.602966 L921.835510 534.475891 L 912.988586 536.189148 z" />
	<path class="edge" d="M899.334167 446.485199 C868.762207 436.481262, 838.944092 425.723389, 809.886780 414.222412" />
	<path class="arrow" d="M797.948486 409.413116 L808.283691 418.201813 L 811.489868 410.243011 z" />
	<path class="edge" d="M806.504700 297.437927 C801.375244 327.244598, 797.366455 357.836243, 794.498291 389.238037" />
	<path class="arrow" d="M793.421692 402.063568 L798.773438 389.596893 L 790.223145 388.879181 z" />
	<path class="edge" d="M802.832520 289.727753 C778.881226 276.292542, 756.312561 262.568176, 735.116516 248.559677" />
	<path class="arrow" d="M724.682617 241.523392 L732.771118 252.037613 L 737.461914 245.081741 z" />
	<path class="edge" d="M793.132141 412.770477 C793.941284 441.236115, 794.161743 469.066895, 793.783569 496.235565" />
	<path class="arrow" d="M793.532471 509.384094 L798.166382 496.319275 L 789.400757 496.151855 z" />
	<path class="edge" d="M788.153320 405.054260 C760.480286 391.546173, 733.995178 378.808411, 708.674683 366.827820" />
	<path class="arrow" d="M696.899231 361.277649 L706.824646 370.752930 L 710.524719 362.902710 z" />
	<path class="edge" d="M788.360901 410.147461 C761.210571 426.313873, 735.098511 442.666016, 710.030029 459.207855" />
	<path class="arrow" d="M698.965820 466.591034 L712.491089 462.895905 L 707.568970 455.519806 z" />
	<path class="edge" d="M1019.737549 601.424927 C992.996216 590.488281, 965.716064 577.723938, 937.932068 563.162598" />
	<path class="arrow" d="M926.014526 556.784607 L935.806091 567.135132 L 940.058044 559.190063 z" />
	<path class="edge" d="M915.588623 552.775269 C879.750916 543.805908, 844.857788 533.288696, 810.932495 521.245483" />
	<path class="arrow" d="M798.577087 516.741150 L809.431091 525.363892 L 812.433899 517.127075 z" />
	<path class="edge" d="M732.851318 142.728027 C727.198486 167.946121, 723.363525 193.957779, 721.375122 220.788147" />
	<path class="arrow" d="M720.639099 233.351364 L725.562805 221.033478 L 717.187439 220.542816 z" />
	<path class="edge" d="M718.864929 243.627518 C709.591675 275.739838, 701.751038 308.138275, 695.371704 340.829010" />
	<path class="arrow" d="M692.984131 353.626068 L699.637329 341.624847 L 691.106079 340.033173 z" />
	<path class="edge" d="M788.273438 513.000122 C761.487671 503.187561, 735.690247 491.745789, 710.897095 478.699066" />
	<path class="arrow" d="M699.220947 472.327393 L708.773254 482.591064 L 713.020935 474.807068 z" />
	<path class="edge" d="M691.668884 364.382538 C690.099731 393.033630, 690.413696 421.871094, 692.644348 450.898926" />
	<path class="arrow" d="M693.849121 464.145660 L697.059875 450.497345 L 688.228821 451.300507 z" />
	<path class="edge" d="M689.736267 472.747681 C660.204041 492.440186, 631.619690 511.488800, 604.003967 529.879578" />
	<path class="arrow" d="M592.168701 537.760193 L606.630798 533.824646 L 601.377136 525.934509 z" />
	<path class="edge" d="M582.239380 544.258484 C558.558716 559.488892, 535.627197 574.234070, 513.456787 588.486511" />
	<path class="arrow" d="M500.563721 596.774353 L516.219360 592.784119 L 510.694214 584.188904 z" />
	<circle class="initial node" cx="1009.511902" cy="271.433472" r="5.54039"/>
	<circle class="node" cx="1041.957520" cy="375.491882" r="5.77647"/>
	<circle class="node" cx="919.565308" cy="224.255066" r="5.25968"/>
	<circle class="node" cx="917.165649" cy="335.466675" r="5.37924"/>
	<circle class="node" cx="1012.500366" cy="494.640839" r="5.80935"/>
	<circle class="node" cx="817.170044" cy="188.610229" r="5.12371"/>
	<circle class="node" cx="904.547241" cy="448.181335" r="5.48218"/>
	<circle class="node" cx="807.404846" cy="292.279694" r="5.2362"/>
	<circle class="node" cx="792.973022" cy="407.408783" r="5.36402"/>
	<circle class="node" cx="1025.280518" cy="603.668823" r="5.98008"/>
	<circle class="node" cx="921.052002" cy="554.128784" r="5.62847"/>
	<circle class="node" cx="733.995605" cy="137.739197" r="5.11842"/>
	<circle class="node" cx="720.332214" cy="238.589600" r="5.24722"/>
	<circle class="node" cx="793.427795" cy="514.863892" r="5.48081"/>
	<circle class="node" cx="691.988403" cy="358.962982" r="5.429"/>
	<circle class="node" cx="694.351563" cy="469.670135" r="5.54726"/>
	<circle class="node" cx="587.229858" cy="541.048767" r="5.93354"/>
	<circle class="node" cx="495.181244" cy="600.234253" r="6.39861"/>
	<text class="label" x="1029.951172" y="322.135864">max(1, 1, 1, X)</text>
	<text class="label" x="966.777405" y="244.081604">max(1, 1, 2, X)</text>
	<text class="label" x="966.578186" y="302.468842">max(1, 1, 1, X)|max(1, 1, 2, X)</text>
	<text class="label" x="1030.901123" y="434.792297">min(7, 2, 1, O)</text>
	<text class="label" x="981.540466" y="357.646790">max(1, 1, 2, X)</text>
	<text class="label" x="917.880981" y="276.494293">max(1, 1, 1, X)</text>
	<text class="label" x="870.188110" y="203.624573">min(7, 2, 2, O)</text>
	<text class="label" x="913.017456" y="392.819153">min(7, 2, 1, O)</text>
	<text class="label" x="861.747437" y="310.873993">min(7, 2, 2, O)</text>
	<text class="label" x="854.931213" y="368.951538">min(7, 2, 1, O)|min(7, 2, 2, O)</text>
	<text class="label" x="1023.202698" y="550.751953">max(49, 3, 1, X)</text>
	<text class="label" x="960.779419" y="471.016327">max(1, 1, 2, X)</text>
	<text class="label" x="967.506348" y="526.973755">max(49, 3, 1, X)|max(1, 1, 2, X)</text>
	<text class="label" x="814.199036" y="238.028870">max(1, 1, 1, X)</text>
	<text class="label" x="775.180786" y="159.341064">max(49, 3, 2, X)</text>
	<text class="label" x="766.330383" y="213.119690">max(1, 1, 1, X)|max(49, 3, 2, X)</text>
	<text class="label" x="910.725342" y="502.699310">max(49, 3, 1, X)</text>
	<text class="label" x="847.055359" y="429.539795">min(7, 2, 2, O)</text>
	<text class="label" x="797.531921" y="348.460358">min(7, 2, 1, O)</text>
	<text class="label" x="760.596863" y="265.512909">max(49, 3, 2, X)</text>
	<text class="label" x="794.611389" y="462.994263">max(49, 3, 1, X)</text>
	<text class="label" x="739.603638" y="381.605804">max(49, 3, 2, X)</text>
	<text class="label" x="741.350525" y="439.058319">max(49, 3, 1, X)|max(49, 3, 2, X)</text>
	<text class="label" x="974.182007" y="583.547852">max(1, 1, 2, X)</text>
	<text class="label" x="855.220276" y="537.948853">min(7, 2, 2, O)</text>
	<text class="label" x="722.707153" y="186.340088">max(1, 1, 1, X)</text>
	<text class="label" x="702.709045" y="298.254486">min(7, 2, 1, O)</text>
	<text class="label" x="741.542419" y="496.308777">max(49, 3, 2, X)</text>
	<text class="label" x="688.562073" y="414.124298">max(49, 3, 1, X)</text>
	<text class="label" x="638.441772" y="507.037262">backtrackingParallel</text>
	<text class="label" x="539.065735" y="572.031494">defSuccessorGen</text>
</svg>
