<!DOCTYPE svg PUBLIC "-//W3C//DTD SVG 1.1//EN" "http://www.w3.org/Graphics/SVG/1.1/DTD/svg11.dtd">
<!-- Uploaded to: SVG Repo, www.svgrepo.com, Transformed by: SVG Repo Mixer Tools -->
<svg height="800px" width="800px" version="1.1" id="Capa_1" xmlns="http://www.w3.org/2000/svg" xmlns:xlink="http://www.w3.org/1999/xlink" viewBox="-1.76 -1.76 21.13 21.13" xml:space="preserve" fill="#645eb5" transform="rotate(0)" stroke="#645eb5" stroke-width="0.088065">
<g id="SVGRepo_bgCarrier" stroke-width="0">
<path transform="translate(-1.76, -1.76), scale(1.320625)" fill="#645eb5" d="M9.166.33a2.25 2.25 0 00-2.332 0l-5.25 3.182A2.25 2.25 0 00.5 5.436v5.128a2.25 2.25 0 001.084 1.924l5.25 3.182a2.25 2.25 0 002.332 0l5.25-3.182a2.25 2.25 0 001.084-1.924V5.436a2.25 2.25 0 00-1.084-1.924L9.166.33z" strokewidth="0"/>
</g>
<g id="SVGRepo_tracerCarrier" stroke-linecap="round" stroke-linejoin="round"/>
<g id="SVGRepo_iconCarrier"> <g> <g> <path style="fill:#ffffff;" d="M8.806,5.839c-1.716,0-3.111,1.396-3.111,3.112c0,0.537,0.137,1.043,0.377,1.485l4.219-4.219 C9.849,5.976,9.344,5.839,8.806,5.839z"/> <path style="fill:#ffffff;" d="M7.322,11.685c0.442,0.24,0.948,0.377,1.485,0.377c1.716,0,3.112-1.396,3.112-3.111 c0-0.537-0.138-1.043-0.378-1.484L7.322,11.685z"/> <path style="fill:#ffffff;" d="M15.955,4.295c-0.213-0.192-0.518-0.253-0.788-0.159c-0.004,0.002-1.042,0.145-1.042,0.145 s-3.245-0.66-4.596-3.805C9.407,0.195,9.135,0.009,8.829,0C8.502-0.007,8.24,0.161,8.103,0.435C6.518,3.613,3.395,4.28,3.395,4.28 l-0.92-0.133C2.202,4.038,1.891,4.09,1.67,4.282C1.447,4.474,1.351,4.774,1.419,5.059c0.499,2.096,3.2,12.554,7.389,12.554 c4.188,0,6.888-10.458,7.387-12.554C16.261,4.78,16.168,4.488,15.955,4.295z M8.806,13.142c-2.311,0-4.191-1.881-4.191-4.191 c0-2.311,1.88-4.191,4.191-4.191s4.191,1.88,4.191,4.191C12.997,11.261,11.118,13.142,8.806,13.142z"/> </g> </g> </g>
</svg>