<svg xmlns="http://www.w3.org/2000/svg" width="209" height="203.999" viewBox="0 0 209 203.999">
  <path id="Sustracción_2" data-name="Sustracción 2" d="M-1931,203.5h-93a57.14,57.14,0,0,1-22.382-4.519,57.31,57.31,0,0,1-18.277-12.323,57.31,57.31,0,0,1-12.323-18.277A57.141,57.141,0,0,1-2081.5,146V58a57.139,57.139,0,0,1,4.519-22.381,57.31,57.31,0,0,1,12.323-18.277,57.311,57.311,0,0,1,18.277-12.323A57.14,57.14,0,0,1-2024,.5h93a57.141,57.141,0,0,1,22.382,4.519,57.309,57.309,0,0,1,18.277,12.323,57.309,57.309,0,0,1,12.323,18.277A57.139,57.139,0,0,1-1873.5,58v88a57.141,57.141,0,0,1-4.519,22.382,57.31,57.31,0,0,1-12.323,18.277,57.309,57.309,0,0,1-18.277,12.323A57.141,57.141,0,0,1-1931,203.5Zm-11.164-95.051c-17.717,0-32.13,12.893-32.13,28.741s14.413,28.741,32.13,28.741,32.129-12.892,32.129-28.739S-1924.448,108.449-1942.164,108.449Zm-57.824-22.988v45.983h16.609a34.631,34.631,0,0,1,4.106-11.271,37.863,37.863,0,0,1,7.628-9.356,41.888,41.888,0,0,1,10.459-6.824,45.244,45.244,0,0,1,12.6-3.673V85.461Zm-6.426-40.235h0l-38.552,57.478h35.339V76.84h24.416l-21.2-31.613Z" transform="translate(2082 0)" fill="#671616" stroke="#707070" stroke-width="1"/>
</svg>
