<svg xmlns="http://www.w3.org/2000/svg" width="209" height="204" viewBox="0 0 209 204">
  <path id="Sustracción_4" data-name="Sustracción 4" d="M-1931,203.5h-93a57.14,57.14,0,0,1-22.382-4.519,57.31,57.31,0,0,1-18.277-12.323,57.31,57.31,0,0,1-12.323-18.277A57.141,57.141,0,0,1-2081.5,146V58a57.139,57.139,0,0,1,4.519-22.381,57.31,57.31,0,0,1,12.323-18.277,57.311,57.311,0,0,1,18.277-12.323A57.14,57.14,0,0,1-2024,.5h93a57.141,57.141,0,0,1,22.382,4.519,57.309,57.309,0,0,1,18.277,12.323,57.309,57.309,0,0,1,12.323,18.277A57.139,57.139,0,0,1-1873.5,58v88a57.141,57.141,0,0,1-4.519,22.382,57.31,57.31,0,0,1-12.323,18.277,57.309,57.309,0,0,1-18.277,12.323A57.141,57.141,0,0,1-1931,203.5Zm-47.988-75.019a13.845,13.845,0,0,1,10.03,4.272,14.821,14.821,0,0,1,4.13,10.374v8.137h19.928a10.685,10.685,0,0,0,10.488-10.85v-21.7h7.866a13.357,13.357,0,0,0,13.11-13.561,13.357,13.357,0,0,0-13.11-13.561h-7.866V69.9A10.685,10.685,0,0,0-1944.9,59.047h-20.977V50.91a13.356,13.356,0,0,0-13.11-13.56,13.356,13.356,0,0,0-13.11,13.56v8.137h-20.976A10.685,10.685,0,0,0-2023.564,69.9V90.509h7.866a13.845,13.845,0,0,1,10.03,4.272,14.822,14.822,0,0,1,4.13,10.374,14.822,14.822,0,0,1-4.13,10.374,13.845,13.845,0,0,1-10.03,4.272h-7.866v20.613a10.686,10.686,0,0,0,10.489,10.85h19.928v-8.137a14.822,14.822,0,0,1,4.13-10.374A13.844,13.844,0,0,1-1978.988,128.48Z" transform="translate(2082 0)" fill="#671616" stroke="#707070" stroke-width="1"/>
</svg>
