<svg xmlns="http://www.w3.org/2000/svg" width="209" height="204" viewBox="0 0 209 204">
  <path id="Sustracción_3" data-name="Sustracción 3" d="M-1931,203.5h-93a57.14,57.14,0,0,1-22.382-4.519,57.31,57.31,0,0,1-18.277-12.323,57.31,57.31,0,0,1-12.323-18.277A57.141,57.141,0,0,1-2081.5,146V58a57.139,57.139,0,0,1,4.519-22.381,57.31,57.31,0,0,1,12.323-18.277,57.311,57.311,0,0,1,18.277-12.323A57.14,57.14,0,0,1-2024,.5h93a57.141,57.141,0,0,1,22.382,4.519,57.309,57.309,0,0,1,18.277,12.323,57.309,57.309,0,0,1,12.323,18.277A57.139,57.139,0,0,1-1873.5,58v88a57.141,57.141,0,0,1-4.519,22.382,57.31,57.31,0,0,1-12.323,18.277,57.309,57.309,0,0,1-18.277,12.323A57.141,57.141,0,0,1-1931,203.5Zm-26.056-72.556,24.246,24.11a6.111,6.111,0,0,0,4.336,1.786,6.114,6.114,0,0,0,4.336-1.786,6.04,6.04,0,0,0,1.8-4.312,6.037,6.037,0,0,0-1.8-4.31l-.021-.015-24.225-24.095a46.634,46.634,0,0,0-6.3-63.566,47.123,47.123,0,0,0-30.977-11.595,46.835,46.835,0,0,0-33.237,13.684,46.631,46.631,0,0,0-2.1,63.84,47.143,47.143,0,0,0,35.354,15.916,46.749,46.749,0,0,0,28.586-9.656Zm-28.567-2.536a34.684,34.684,0,0,1-13.5-2.72,34.62,34.62,0,0,1-11.022-7.392,34.4,34.4,0,0,1-7.435-10.958,34.137,34.137,0,0,1-2.735-13.418,34.094,34.094,0,0,1,2.726-13.423,34.362,34.362,0,0,1,7.434-10.962,34.585,34.585,0,0,1,11.026-7.391,34.646,34.646,0,0,1,13.5-2.71,34.645,34.645,0,0,1,13.5,2.71,34.587,34.587,0,0,1,11.026,7.391,34.362,34.362,0,0,1,7.434,10.962,34.094,34.094,0,0,1,2.726,13.423,34.451,34.451,0,0,1-4.175,16.417,34.107,34.107,0,0,1-12.417,13.03A34.9,34.9,0,0,1-1985.623,128.408Z" transform="translate(2082 0)" fill="#671616" stroke="#707070" stroke-width="1"/>
</svg>
