<svg xmlns="http://www.w3.org/2000/svg" width="209" height="203.999" viewBox="0 0 209 203.999">
  <path id="Sustracción_1" data-name="Sustracción 1" d="M-1931,203.5h-93a57.14,57.14,0,0,1-22.382-4.519,57.31,57.31,0,0,1-18.277-12.323,57.31,57.31,0,0,1-12.323-18.277A57.141,57.141,0,0,1-2081.5,146V58a57.139,57.139,0,0,1,4.519-22.381,57.31,57.31,0,0,1,12.323-18.277,57.311,57.311,0,0,1,18.277-12.323A57.14,57.14,0,0,1-2024,.5h93a57.141,57.141,0,0,1,22.382,4.519,57.309,57.309,0,0,1,18.277,12.323,57.309,57.309,0,0,1,12.323,18.277A57.139,57.139,0,0,1-1873.5,58v88a57.141,57.141,0,0,1-4.519,22.382,57.31,57.31,0,0,1-12.323,18.277,57.309,57.309,0,0,1-18.277,12.323A57.141,57.141,0,0,1-1931,203.5Zm-105.751-82.011-9.646,10.545,24.458,26.739,38.755-42.557-9.645-10.733-29.281,32.011-14.64-16.006Zm66.141,7.156v15.064h62.007V128.645Zm-66.141-67.413-9.646,10.545,24.458,26.739,38.755-42.557-9.645-10.733-29.281,32.011-14.64-16.006Zm66.141,7.156V83.452h62.007V68.388Z" transform="translate(2082 0)" fill="#671616" stroke="#707070" stroke-width="1"/>
</svg>
